Coordinates
version=1
nRows=10
nColumns=40
inDegrees=yes

Units are S.I. units (second, meters, Newtons, ...)
If the header above contains a line with 'inDegrees', this indicates whether rotational values are in degrees (yes) or radians (no).

endheader
time	pelvis_tilt	pelvis_list	pelvis_rotation	pelvis_tx	pelvis_ty	pelvis_tz	hip_flexion_r	hip_adduction_r	hip_rotation_r	knee_angle_r	knee_angle_r_beta	ankle_angle_r	subtalar_angle_r	mtp_angle_r	hip_flexion_l	hip_adduction_l	hip_rotation_l	knee_angle_l	knee_angle_l_beta	ankle_angle_l	subtalar_angle_l	mtp_angle_l	lumbar_extension	lumbar_bending	lumbar_rotation	arm_flex_r	arm_add_r	arm_rot_r	elbow_flex_r	pro_sup_r	wrist_flex_r	wrist_dev_r	arm_flex_l	arm_add_l	arm_rot_l	elbow_flex_l	pro_sup_l	wrist_flex_l	wrist_dev_l
      5.57500000000000017764	      9.27013519786251194432	     -1.65271863262563556418	   -178.38745991557686920714	      0.36852140349519918461	      0.78083552241164810859	     -0.95159728713525126853	     24.40568563102187482627	    -36.92374195421682259166	    -38.99560219872444832845	     12.94224269670811544586	      0.22588474764974650344	    -21.78285664928600695589	      0.00000000000000000000	      0.00000000000000000000	     26.51210520657134495082	    -31.24917677203628585403	    -35.45022216595626218805	     12.84057701911132554073	      0.22411034683941147283	    -21.27967885160323646687	      0.00000000000000000000	      0.00000000000000000000	    -23.27003239537167189610	     -0.90264648517069567824	      1.68431125861352781747	     31.13980349772463185332	     -9.10691511875267067921	     42.05528233079166966490	      1.77932850659806707228	     76.68903947823707767384	      0.00000000000000000000	      0.00000000000000000000	     25.55172736347533657408	     -4.28266744825422129850	     33.05500741416696541819	      1.18506476456601039793	      5.37331732433782427449	      0.00000000000000000000	      0.00000000000000000000
      5.58000000000000007105	      9.01050125650921351905	     -1.89422129845020181804	   -178.35501783293463518021	      0.36736829520187841425	      0.78123829790184384780	     -0.95143294171430969897	     23.90775080110013917079	    -37.06779017769780892877	    -39.01689221987012956561	     12.61761280347996994067	      0.22021888716251772355	    -21.76955620813937386515	      0.00000000000000000000	      0.00000000000000000000	     25.98890603582830038931	    -30.95591447498387793758	    -35.74712026813569565320	     12.67975322430750395597	      0.22130344210453303799	    -21.15315960132064532218	      0.00000000000000000000	      0.00000000000000000000	    -23.01451812967437504653	     -1.11504279121743965497	      1.65581942411087079670	     30.78919975308165390970	     -9.15325317281647166112	     41.99670834718199330382	      1.82511339348833967478	     77.11006159541476279173	      0.00000000000000000000	      0.00000000000000000000	     25.03250497559754705890	     -4.31283450619806174586	     34.28553253476604112393	      1.19732034569665746204	      5.23099094798945429829	      0.00000000000000000000	      0.00000000000000000000
      5.58499999999999996447	      8.74911396929945439638	     -2.10719534536426467142	   -178.36029647773719375436	      0.36619628724908237505	      0.78165842272624841414	     -0.95129248732445836900	     23.41919310393942765813	    -37.17256750421650224325	    -39.06909611294118889191	     12.29239184166189424730	      0.21454271058228951974	    -21.73252415757268352081	      0.00000000000000000000	      0.00000000000000000000	     25.44349531094697525191	    -30.69565579714035763459	    -36.05981881604578376255	     12.50732780427333779016	      0.21829405081080266449	    -21.09885060911011933626	      0.00000000000000000000	      0.00000000000000000000	    -22.80655385058393136433	     -1.33156791343482505674	      1.47342322986318485789	     30.54636982042012505190	     -9.11670545191551262576	     42.24402234534282030154	      1.87451414903375779275	     77.91631569957755232281	      0.00000000000000000000	      0.00000000000000000000	     25.07723567232254424653	     -4.36737709458599798751	     31.36632380526546981514	      1.23111253092013250843	      5.25188530134934161708	      0.00000000000000000000	      0.00000000000000000000
      5.58999999999999985789	      8.51162372810790124333	     -2.41278992361682798062	   -178.35444773485249925216	      0.36515650793406195795	      0.78204763965487755772	     -0.95116342350797788985	     23.00962560708576987167	    -37.38886721910947841252	    -39.09159172091909084656	     12.01042543334780177133	      0.20962146837718589887	    -21.71398412197972405124	      0.00000000000000000000	      0.00000000000000000000	     24.88085680122496512467	    -30.30120838375831482381	    -36.38637626783199863212	     12.24916447746725545187	      0.21378825075013438428	    -21.09201943782663235538	      0.00000000000000000000	      0.00000000000000000000	    -22.54752887244825743096	     -1.61515376991350878555	      1.49813325534602315159	     30.23543927351916593693	     -9.11741396831339301343	     41.52537552916697194405	      1.87046514755672088626	     77.84112198345917477127	      0.00000000000000000000	      0.00000000000000000000	     24.67045688591122143407	     -4.43070806931318283972	     32.94558415517150251617	      1.22351444687441834880	      5.44013967281880628235	      0.00000000000000000000	      0.00000000000000000000
      5.59499999999999975131	      8.32993488835862372355	     -2.63182625817124549172	   -178.35247754561930833006	      0.36385799011082897714	      0.78236891872246006052	     -0.95106297462764899375	     22.55096900255251668455	    -37.48806031374375180576	    -39.12799353885012720866	     11.61714164055748099713	      0.20275737129826368332	    -21.72759889604166616550	      0.00000000000000000000	      0.00000000000000000000	     24.37312178569044007759	    -30.00068951666765926234	    -36.73369256232667368067	     11.96657399631047624666	      0.20885611641915358128	    -21.06529031787113837026	      0.00000000000000000000	      0.00000000000000000000	    -22.25710224706771356296	     -1.83837829236642202879	      1.32358652368753815232	     29.96562958001033294408	     -9.05567986829601423437	     41.17282276900164816880	      1.92362830725369149398	     78.57540036319196019576	      0.00000000000000000000	      0.00000000000000000000	     24.76395312899328260414	     -4.48980257185805164966	     29.87457286112280385737	      1.26551874892574023335	      5.52945016123890020765	      0.00000000000000000000	      0.00000000000000000000
      5.59999999999999964473	      8.21853624298058704767	     -2.95527448205943699122	   -178.30007189002768086539	      0.36277326602263604283	      0.78263481990647598696	     -0.95078519821742224494	     22.25393696837495127738	    -37.76395419039432965747	    -39.15054656813806133187	     11.35946466644981001082	      0.19826005969350862790	    -21.77786511869737040570	      0.00000000000000000000	      0.00000000000000000000	     23.95553961509942553221	    -29.53463387100564929710	    -36.99091686138520884697	     11.65545507743435571513	      0.20342606691952014319	    -21.10083006574054564908	      0.00000000000000000000	      0.00000000000000000000	    -21.86168629302820676230	     -2.12068602871852984748	      1.18710385371749160832	     29.60670282641053319139	     -8.99960256693076132706	     41.06728380286997293069	      1.93441323940746379151	     78.35130155872278123752	      0.00000000000000000000	      0.00000000000000000000	     24.42383905588611625603	     -4.57594101259324226305	     30.54088913905003366267	      1.28618614638428718777	      5.69117029300292021077	      0.00000000000000000000	      0.00000000000000000000
      5.60500000000000042633	      7.89904726043812743796	     -3.28126301364338957001	   -178.26419268044119803562	      0.36161620342315881071	      0.78310064826745384714	     -0.95053029624153606569	     21.70926901204387959865	    -38.02194514117897483629	    -39.17882876432346961337	     11.06288149232469031347	      0.19308370679900963007	    -21.76744575782560531252	      0.00000000000000000000	      0.00000000000000000000	     23.30108537863757689479	    -29.08396579107875012937	    -37.31092644580584050118	     11.34806915692254136729	      0.19806117053231542258	    -21.05016338847714507665	      0.00000000000000000000	      0.00000000000000000000	    -21.71924107515055268891	     -2.40856761743795910746	      0.82502191548464509641	     29.34362410188657932508	     -8.81340876924271476867	     41.75481257163814063915	      1.96922631258963565237	     76.53213487117679392213	      0.00000000000000000000	      0.00000000000000000000	     24.46909477948817368542	     -4.71857690160116582945	     27.93736883987333641244	      1.32665574915768402775	      5.83615952947640526105	      0.00000000000000000000	      0.00000000000000000000
      5.61000000000000031974	      7.73502567176946786986	     -3.31321784519827922111	   -178.26268685398653701668	      0.36046718526526272397	      0.78337461576461708823	     -0.95052950301832817015	     21.23988321349656160919	    -37.91991045342557953290	    -39.23181848065777899137	     10.69037772898163396462	      0.18658228965260353904	    -21.74583779514306414171	      0.00000000000000000000	      0.00000000000000000000	     22.91437054157841046731	    -28.99251630085353070854	    -37.50281397999992094583	     11.11459922388955767758	      0.19398635149647916465	    -21.07221872614010038660	      0.00000000000000000000	      0.00000000000000000000	    -21.39628163951061878834	     -2.43360608182099147356	      0.79167921673808050453	     29.13882397260314505161	     -8.87054623806288233823	     41.35598927050578055287	      2.01300123503825290072	     79.10068452919162496073	      0.00000000000000000000	      0.00000000000000000000	     24.40252151210162523398	     -4.76277731519618718892	     26.72832597117357877892	      1.35221796198807786560	      5.95342923946939706070	      0.00000000000000000000	      0.00000000000000000000
      5.61500000000000021316	      7.51343571938891940931	     -3.63133744879118047777	   -178.20855222946548224172	      0.35907528265320570737	      0.78372561995066070129	     -0.95038048571993916092	     20.78167194676234430517	    -38.19346804988091292898	    -39.24520902875737959903	     10.44335809662590897062	      0.18227098375093023219	    -21.70501846806071100104	      0.00000000000000000000	      0.00000000000000000000	     22.36881155226758366439	    -28.53630318987596936608	    -37.76807393372799026565	     10.79701751308777701865	      0.18844350499887166372	    -21.07615691043692152107	      0.00000000000000000000	      0.00000000000000000000	    -21.13971514465078271883	     -2.73151694373803932692	      0.72981970962975095674	     28.78369465199737220473	     -8.81985627256158899456	     40.11218678650014624054	      2.03978078428689135748	     78.81231228768125163242	      0.00000000000000000000	      0.00000000000000000000	     24.01511729439996400970	     -4.80343701108705189995	     27.72734631448215125715	      1.34892745607779396266	      6.07305755177920225663	      0.00000000000000000000	      0.00000000000000000000
      5.62000000000000010658	      7.26767190553532227426	     -3.85458014170850837843	   -178.18638831004287226278	      0.35771531128001532451	      0.78401435489592385952	     -0.95032459005300062849	     20.28797310796693764701	    -38.34847355299331184142	    -39.27312388721957603366	     10.19097918310307626655	      0.17786614074735077051	    -21.63176449570925186094	      0.00000000000000000000	      0.00000000000000000000	     21.82810777607085128693	    -28.21493183285691941364	    -37.94447209462700953964	     10.50355361265855336228	      0.18332159370063691450	    -21.04153263128907980217	      0.00000000000000000000	      0.00000000000000000000	    -20.89190940160648324309	     -2.93411459487260062318	      0.50972852214452901709	     28.52937459188353130912	     -8.75003122424564239168	     40.27870382250225134158	      2.05307299198508319549	     79.99152314932666740788	      0.00000000000000000000	      0.00000000000000000000	     23.93821831785622578082	     -4.93074814148683948645	     26.04771312110441527921	      1.39281413838829526419	      6.42914455229274128811	      0.00000000000000000000	      0.00000000000000000000
